<mxfile host="app.diagrams.net" modified="2023-03-05T15:30:34.807Z" agent="5.0 (Windows NT 10.0; Win64; x64) AppleWebKit/537.36 (KHTML, like Gecko) Chrome/110.0.0.0 Safari/537.36" etag="TpgOJoCbf6k9wCxxfBFW" version="20.8.22" type="github">
  <diagram name="Stránka-1" id="GkniLpcTyyBhh2dXb4qm">
    <mxGraphModel dx="1880" dy="567" grid="1" gridSize="10" guides="1" tooltips="1" connect="1" arrows="1" fold="1" page="1" pageScale="1" pageWidth="827" pageHeight="1169" math="0" shadow="0">
      <root>
        <mxCell id="0" />
        <mxCell id="1" parent="0" />
        <mxCell id="ZvNCzg9YMRPsK_EZllgJ-1" value="" style="swimlane;html=1;startSize=20;fontStyle=0;collapsible=0;horizontal=0;swimlaneLine=1;swimlaneFillColor=#ffffff;strokeWidth=2;whiteSpace=wrap;" vertex="1" parent="1">
          <mxGeometry x="190" y="130" width="1300" height="320" as="geometry" />
        </mxCell>
        <mxCell id="ZvNCzg9YMRPsK_EZllgJ-2" value="Student" style="text;html=1;strokeColor=none;fillColor=none;align=center;verticalAlign=middle;whiteSpace=wrap;rounded=0;rotation=-90;" vertex="1" parent="ZvNCzg9YMRPsK_EZllgJ-1">
          <mxGeometry x="-20" y="145" width="60" height="30" as="geometry" />
        </mxCell>
        <mxCell id="ZvNCzg9YMRPsK_EZllgJ-9" style="edgeStyle=orthogonalEdgeStyle;rounded=0;orthogonalLoop=1;jettySize=auto;html=1;exitX=1;exitY=0.5;exitDx=0;exitDy=0;exitPerimeter=0;" edge="1" parent="ZvNCzg9YMRPsK_EZllgJ-1" source="ZvNCzg9YMRPsK_EZllgJ-5" target="ZvNCzg9YMRPsK_EZllgJ-8">
          <mxGeometry relative="1" as="geometry" />
        </mxCell>
        <mxCell id="ZvNCzg9YMRPsK_EZllgJ-5" value="" style="points=[[0.145,0.145,0],[0.5,0,0],[0.855,0.145,0],[1,0.5,0],[0.855,0.855,0],[0.5,1,0],[0.145,0.855,0],[0,0.5,0]];shape=mxgraph.bpmn.event;html=1;verticalLabelPosition=bottom;labelBackgroundColor=#ffffff;verticalAlign=top;align=center;perimeter=ellipsePerimeter;outlineConnect=0;aspect=fixed;outline=standard;symbol=general;" vertex="1" parent="ZvNCzg9YMRPsK_EZllgJ-1">
          <mxGeometry x="30" y="50" width="50" height="50" as="geometry" />
        </mxCell>
        <mxCell id="ZvNCzg9YMRPsK_EZllgJ-7" value="" style="points=[[0.145,0.145,0],[0.5,0,0],[0.855,0.145,0],[1,0.5,0],[0.855,0.855,0],[0.5,1,0],[0.145,0.855,0],[0,0.5,0]];shape=mxgraph.bpmn.event;html=1;verticalLabelPosition=bottom;labelBackgroundColor=#ffffff;verticalAlign=top;align=center;perimeter=ellipsePerimeter;outlineConnect=0;aspect=fixed;outline=end;symbol=terminate2;" vertex="1" parent="ZvNCzg9YMRPsK_EZllgJ-1">
          <mxGeometry x="1210" y="50" width="50" height="50" as="geometry" />
        </mxCell>
        <mxCell id="ZvNCzg9YMRPsK_EZllgJ-12" style="edgeStyle=orthogonalEdgeStyle;rounded=0;orthogonalLoop=1;jettySize=auto;html=1;" edge="1" parent="ZvNCzg9YMRPsK_EZllgJ-1" source="ZvNCzg9YMRPsK_EZllgJ-8" target="ZvNCzg9YMRPsK_EZllgJ-11">
          <mxGeometry relative="1" as="geometry" />
        </mxCell>
        <mxCell id="ZvNCzg9YMRPsK_EZllgJ-8" value="Vybrat obor" style="points=[[0.25,0,0],[0.5,0,0],[0.75,0,0],[1,0.25,0],[1,0.5,0],[1,0.75,0],[0.75,1,0],[0.5,1,0],[0.25,1,0],[0,0.75,0],[0,0.5,0],[0,0.25,0]];shape=mxgraph.bpmn.task;whiteSpace=wrap;rectStyle=rounded;size=10;html=1;taskMarker=abstract;" vertex="1" parent="ZvNCzg9YMRPsK_EZllgJ-1">
          <mxGeometry x="120" y="35" width="120" height="80" as="geometry" />
        </mxCell>
        <mxCell id="ZvNCzg9YMRPsK_EZllgJ-15" style="edgeStyle=orthogonalEdgeStyle;rounded=0;orthogonalLoop=1;jettySize=auto;html=1;entryX=0;entryY=0.5;entryDx=0;entryDy=0;entryPerimeter=0;" edge="1" parent="ZvNCzg9YMRPsK_EZllgJ-1" source="ZvNCzg9YMRPsK_EZllgJ-11" target="ZvNCzg9YMRPsK_EZllgJ-14">
          <mxGeometry relative="1" as="geometry" />
        </mxCell>
        <mxCell id="ZvNCzg9YMRPsK_EZllgJ-11" value="Vyplnit dokumenty" style="points=[[0.25,0,0],[0.5,0,0],[0.75,0,0],[1,0.25,0],[1,0.5,0],[1,0.75,0],[0.75,1,0],[0.5,1,0],[0.25,1,0],[0,0.75,0],[0,0.5,0],[0,0.25,0]];shape=mxgraph.bpmn.task;whiteSpace=wrap;rectStyle=rounded;size=10;html=1;taskMarker=abstract;" vertex="1" parent="ZvNCzg9YMRPsK_EZllgJ-1">
          <mxGeometry x="290" y="35" width="120" height="80" as="geometry" />
        </mxCell>
        <mxCell id="ZvNCzg9YMRPsK_EZllgJ-13" value="Zajem o studium" style="text;html=1;strokeColor=none;fillColor=none;align=center;verticalAlign=middle;whiteSpace=wrap;rounded=0;" vertex="1" parent="ZvNCzg9YMRPsK_EZllgJ-1">
          <mxGeometry x="25" y="100" width="65" height="30" as="geometry" />
        </mxCell>
        <mxCell id="ZvNCzg9YMRPsK_EZllgJ-47" style="edgeStyle=orthogonalEdgeStyle;rounded=0;orthogonalLoop=1;jettySize=auto;html=1;exitX=1;exitY=0.5;exitDx=0;exitDy=0;exitPerimeter=0;entryX=0;entryY=0.5;entryDx=0;entryDy=0;entryPerimeter=0;" edge="1" parent="ZvNCzg9YMRPsK_EZllgJ-1" source="ZvNCzg9YMRPsK_EZllgJ-14" target="ZvNCzg9YMRPsK_EZllgJ-50">
          <mxGeometry relative="1" as="geometry">
            <mxPoint x="600" y="75" as="targetPoint" />
          </mxGeometry>
        </mxCell>
        <mxCell id="ZvNCzg9YMRPsK_EZllgJ-14" value="Podat přihlášku" style="points=[[0.25,0,0],[0.5,0,0],[0.75,0,0],[1,0.25,0],[1,0.5,0],[1,0.75,0],[0.75,1,0],[0.5,1,0],[0.25,1,0],[0,0.75,0],[0,0.5,0],[0,0.25,0]];shape=mxgraph.bpmn.task;whiteSpace=wrap;rectStyle=rounded;size=10;html=1;taskMarker=abstract;" vertex="1" parent="ZvNCzg9YMRPsK_EZllgJ-1">
          <mxGeometry x="450" y="35" width="120" height="80" as="geometry" />
        </mxCell>
        <mxCell id="ZvNCzg9YMRPsK_EZllgJ-24" value="Podani prihlasky" style="text;html=1;strokeColor=none;fillColor=none;align=center;verticalAlign=middle;whiteSpace=wrap;rounded=0;" vertex="1" parent="ZvNCzg9YMRPsK_EZllgJ-1">
          <mxGeometry x="130" y="130" width="120" height="30" as="geometry" />
        </mxCell>
        <mxCell id="ZvNCzg9YMRPsK_EZllgJ-43" value="" style="edgeStyle=elbowEdgeStyle;fontSize=12;html=1;endFill=0;startFill=0;endSize=6;startSize=6;dashed=1;dashPattern=1 4;endArrow=openThin;startArrow=none;rounded=0;entryX=0.75;entryY=1;entryDx=0;entryDy=0;entryPerimeter=0;" edge="1" parent="ZvNCzg9YMRPsK_EZllgJ-1" target="ZvNCzg9YMRPsK_EZllgJ-14">
          <mxGeometry width="160" relative="1" as="geometry">
            <mxPoint x="310" y="160" as="sourcePoint" />
            <mxPoint x="550" y="160" as="targetPoint" />
            <Array as="points">
              <mxPoint x="540" y="140" />
            </Array>
          </mxGeometry>
        </mxCell>
        <mxCell id="ZvNCzg9YMRPsK_EZllgJ-48" value="Odpověď obdržena" style="text;html=1;strokeColor=none;fillColor=none;align=center;verticalAlign=middle;whiteSpace=wrap;rounded=0;" vertex="1" parent="ZvNCzg9YMRPsK_EZllgJ-1">
          <mxGeometry x="595" y="100" width="60" height="30" as="geometry" />
        </mxCell>
        <mxCell id="ZvNCzg9YMRPsK_EZllgJ-56" style="edgeStyle=orthogonalEdgeStyle;rounded=0;orthogonalLoop=1;jettySize=auto;html=1;entryX=0;entryY=0.5;entryDx=0;entryDy=0;entryPerimeter=0;" edge="1" parent="ZvNCzg9YMRPsK_EZllgJ-1" source="ZvNCzg9YMRPsK_EZllgJ-50" target="ZvNCzg9YMRPsK_EZllgJ-54">
          <mxGeometry relative="1" as="geometry">
            <mxPoint x="675.0000554017236" y="75.0526315789474" as="targetPoint" />
          </mxGeometry>
        </mxCell>
        <mxCell id="ZvNCzg9YMRPsK_EZllgJ-50" value="" style="points=[[0.145,0.145,0],[0.5,0,0],[0.855,0.145,0],[1,0.5,0],[0.855,0.855,0],[0.5,1,0],[0.145,0.855,0],[0,0.5,0]];shape=mxgraph.bpmn.event;html=1;verticalLabelPosition=bottom;labelBackgroundColor=#ffffff;verticalAlign=top;align=center;perimeter=ellipsePerimeter;outlineConnect=0;aspect=fixed;outline=catching;symbol=message;" vertex="1" parent="ZvNCzg9YMRPsK_EZllgJ-1">
          <mxGeometry x="600" y="50" width="50" height="50" as="geometry" />
        </mxCell>
        <mxCell id="ZvNCzg9YMRPsK_EZllgJ-59" style="edgeStyle=orthogonalEdgeStyle;rounded=0;orthogonalLoop=1;jettySize=auto;html=1;entryX=0;entryY=0.5;entryDx=0;entryDy=0;entryPerimeter=0;" edge="1" parent="ZvNCzg9YMRPsK_EZllgJ-1" source="ZvNCzg9YMRPsK_EZllgJ-54" target="ZvNCzg9YMRPsK_EZllgJ-58">
          <mxGeometry relative="1" as="geometry" />
        </mxCell>
        <mxCell id="ZvNCzg9YMRPsK_EZllgJ-63" style="edgeStyle=orthogonalEdgeStyle;rounded=0;orthogonalLoop=1;jettySize=auto;html=1;entryX=0.5;entryY=0;entryDx=0;entryDy=0;entryPerimeter=0;" edge="1" parent="ZvNCzg9YMRPsK_EZllgJ-1" source="ZvNCzg9YMRPsK_EZllgJ-54" target="ZvNCzg9YMRPsK_EZllgJ-62">
          <mxGeometry relative="1" as="geometry" />
        </mxCell>
        <mxCell id="ZvNCzg9YMRPsK_EZllgJ-54" value="" style="points=[[0.25,0.25,0],[0.5,0,0],[0.75,0.25,0],[1,0.5,0],[0.75,0.75,0],[0.5,1,0],[0.25,0.75,0],[0,0.5,0]];shape=mxgraph.bpmn.gateway2;html=1;verticalLabelPosition=bottom;labelBackgroundColor=#ffffff;verticalAlign=top;align=center;perimeter=rhombusPerimeter;outlineConnect=0;outline=none;symbol=none;gwType=exclusive;" vertex="1" parent="ZvNCzg9YMRPsK_EZllgJ-1">
          <mxGeometry x="700" y="50" width="50" height="50" as="geometry" />
        </mxCell>
        <mxCell id="ZvNCzg9YMRPsK_EZllgJ-61" style="edgeStyle=orthogonalEdgeStyle;rounded=0;orthogonalLoop=1;jettySize=auto;html=1;entryX=0;entryY=0.5;entryDx=0;entryDy=0;entryPerimeter=0;" edge="1" parent="ZvNCzg9YMRPsK_EZllgJ-1" source="ZvNCzg9YMRPsK_EZllgJ-58" target="ZvNCzg9YMRPsK_EZllgJ-60">
          <mxGeometry relative="1" as="geometry" />
        </mxCell>
        <mxCell id="ZvNCzg9YMRPsK_EZllgJ-58" value="Přijat bez přijímacího řízení." style="points=[[0.25,0,0],[0.5,0,0],[0.75,0,0],[1,0.25,0],[1,0.5,0],[1,0.75,0],[0.75,1,0],[0.5,1,0],[0.25,1,0],[0,0.75,0],[0,0.5,0],[0,0.25,0]];shape=mxgraph.bpmn.task;whiteSpace=wrap;rectStyle=rounded;size=10;html=1;taskMarker=abstract;" vertex="1" parent="ZvNCzg9YMRPsK_EZllgJ-1">
          <mxGeometry x="790" y="35" width="120" height="80" as="geometry" />
        </mxCell>
        <mxCell id="ZvNCzg9YMRPsK_EZllgJ-60" value="" style="points=[[0.25,0.25,0],[0.5,0,0],[0.75,0.25,0],[1,0.5,0],[0.75,0.75,0],[0.5,1,0],[0.25,0.75,0],[0,0.5,0]];shape=mxgraph.bpmn.gateway2;html=1;verticalLabelPosition=bottom;labelBackgroundColor=#ffffff;verticalAlign=top;align=center;perimeter=rhombusPerimeter;outlineConnect=0;outline=none;symbol=none;gwType=exclusive;" vertex="1" parent="ZvNCzg9YMRPsK_EZllgJ-1">
          <mxGeometry x="970" y="50" width="50" height="50" as="geometry" />
        </mxCell>
        <mxCell id="ZvNCzg9YMRPsK_EZllgJ-62" value="Povinnost absolvovat přijímací řízení" style="points=[[0.25,0,0],[0.5,0,0],[0.75,0,0],[1,0.25,0],[1,0.5,0],[1,0.75,0],[0.75,1,0],[0.5,1,0],[0.25,1,0],[0,0.75,0],[0,0.5,0],[0,0.25,0]];shape=mxgraph.bpmn.task;whiteSpace=wrap;rectStyle=rounded;size=10;html=1;taskMarker=abstract;" vertex="1" parent="ZvNCzg9YMRPsK_EZllgJ-1">
          <mxGeometry x="665" y="150" width="120" height="80" as="geometry" />
        </mxCell>
        <mxCell id="ZvNCzg9YMRPsK_EZllgJ-3" value="" style="swimlane;html=1;startSize=20;fontStyle=0;collapsible=0;horizontal=0;swimlaneLine=1;swimlaneFillColor=#ffffff;strokeWidth=2;whiteSpace=wrap;" vertex="1" parent="1">
          <mxGeometry x="180" y="540" width="1030" height="290" as="geometry" />
        </mxCell>
        <mxCell id="ZvNCzg9YMRPsK_EZllgJ-27" style="edgeStyle=orthogonalEdgeStyle;rounded=0;orthogonalLoop=1;jettySize=auto;html=1;entryX=0;entryY=0.5;entryDx=0;entryDy=0;entryPerimeter=0;" edge="1" parent="ZvNCzg9YMRPsK_EZllgJ-3" source="ZvNCzg9YMRPsK_EZllgJ-19">
          <mxGeometry relative="1" as="geometry">
            <mxPoint x="130" y="40" as="targetPoint" />
          </mxGeometry>
        </mxCell>
        <mxCell id="ZvNCzg9YMRPsK_EZllgJ-19" value="" style="points=[[0.145,0.145,0],[0.5,0,0],[0.855,0.145,0],[1,0.5,0],[0.855,0.855,0],[0.5,1,0],[0.145,0.855,0],[0,0.5,0]];shape=mxgraph.bpmn.event;html=1;verticalLabelPosition=bottom;labelBackgroundColor=#ffffff;verticalAlign=top;align=center;perimeter=ellipsePerimeter;outlineConnect=0;aspect=fixed;outline=standard;symbol=message;" vertex="1" parent="ZvNCzg9YMRPsK_EZllgJ-3">
          <mxGeometry x="30" y="15" width="50" height="50" as="geometry" />
        </mxCell>
        <mxCell id="ZvNCzg9YMRPsK_EZllgJ-29" value="Přihláška přijata" style="text;html=1;strokeColor=none;fillColor=none;align=center;verticalAlign=middle;whiteSpace=wrap;rounded=0;" vertex="1" parent="ZvNCzg9YMRPsK_EZllgJ-3">
          <mxGeometry x="10" y="60" width="120" height="30" as="geometry" />
        </mxCell>
        <mxCell id="ZvNCzg9YMRPsK_EZllgJ-4" value="škola" style="text;html=1;strokeColor=none;fillColor=none;align=center;verticalAlign=middle;whiteSpace=wrap;rounded=0;rotation=-90;" vertex="1" parent="ZvNCzg9YMRPsK_EZllgJ-3">
          <mxGeometry x="-20" y="130" width="60" height="30" as="geometry" />
        </mxCell>
        <mxCell id="ZvNCzg9YMRPsK_EZllgJ-41" style="edgeStyle=orthogonalEdgeStyle;rounded=0;orthogonalLoop=1;jettySize=auto;html=1;entryX=0.5;entryY=0;entryDx=0;entryDy=0;entryPerimeter=0;" edge="1" parent="ZvNCzg9YMRPsK_EZllgJ-3" source="ZvNCzg9YMRPsK_EZllgJ-30">
          <mxGeometry relative="1" as="geometry">
            <mxPoint x="315" y="120" as="targetPoint" />
          </mxGeometry>
        </mxCell>
        <mxCell id="ZvNCzg9YMRPsK_EZllgJ-30" value="Potvrzení přijetí přihlášky" style="points=[[0.25,0,0],[0.5,0,0],[0.75,0,0],[1,0.25,0],[1,0.5,0],[1,0.75,0],[0.75,1,0],[0.5,1,0],[0.25,1,0],[0,0.75,0],[0,0.5,0],[0,0.25,0]];shape=mxgraph.bpmn.task;whiteSpace=wrap;rectStyle=rounded;size=10;html=1;taskMarker=abstract;" vertex="1" parent="ZvNCzg9YMRPsK_EZllgJ-3">
          <mxGeometry x="260" y="2.5" width="110" height="75" as="geometry" />
        </mxCell>
        <mxCell id="ZvNCzg9YMRPsK_EZllgJ-34" style="edgeStyle=orthogonalEdgeStyle;rounded=0;orthogonalLoop=1;jettySize=auto;html=1;entryX=0;entryY=0.5;entryDx=0;entryDy=0;entryPerimeter=0;" edge="1" parent="ZvNCzg9YMRPsK_EZllgJ-3" target="ZvNCzg9YMRPsK_EZllgJ-30">
          <mxGeometry relative="1" as="geometry">
            <mxPoint x="180" y="40" as="sourcePoint" />
          </mxGeometry>
        </mxCell>
        <mxCell id="ZvNCzg9YMRPsK_EZllgJ-36" style="edgeStyle=orthogonalEdgeStyle;rounded=0;orthogonalLoop=1;jettySize=auto;html=1;entryX=0.5;entryY=0;entryDx=0;entryDy=0;" edge="1" parent="ZvNCzg9YMRPsK_EZllgJ-3" target="ZvNCzg9YMRPsK_EZllgJ-35">
          <mxGeometry relative="1" as="geometry">
            <mxPoint x="155" y="65" as="sourcePoint" />
          </mxGeometry>
        </mxCell>
        <mxCell id="ZvNCzg9YMRPsK_EZllgJ-40" style="edgeStyle=orthogonalEdgeStyle;rounded=0;orthogonalLoop=1;jettySize=auto;html=1;entryX=0;entryY=0.5;entryDx=0;entryDy=0;entryPerimeter=0;" edge="1" parent="ZvNCzg9YMRPsK_EZllgJ-3" source="ZvNCzg9YMRPsK_EZllgJ-35">
          <mxGeometry relative="1" as="geometry">
            <mxPoint x="290" y="145" as="targetPoint" />
          </mxGeometry>
        </mxCell>
        <mxCell id="ZvNCzg9YMRPsK_EZllgJ-35" value="Přidání na seznam uchazečů" style="rounded=1;whiteSpace=wrap;html=1;verticalAlign=top;labelBackgroundColor=#ffffff;" vertex="1" parent="ZvNCzg9YMRPsK_EZllgJ-3">
          <mxGeometry x="95" y="115" width="120" height="60" as="geometry" />
        </mxCell>
        <mxCell id="ZvNCzg9YMRPsK_EZllgJ-52" value="" style="points=[[0.25,0.25,0],[0.5,0,0],[0.75,0.25,0],[1,0.5,0],[0.75,0.75,0],[0.5,1,0],[0.25,0.75,0],[0,0.5,0]];shape=mxgraph.bpmn.gateway2;html=1;verticalLabelPosition=bottom;labelBackgroundColor=#ffffff;verticalAlign=top;align=center;perimeter=rhombusPerimeter;outlineConnect=0;outline=end;symbol=general;" vertex="1" parent="ZvNCzg9YMRPsK_EZllgJ-3">
          <mxGeometry x="130" y="15" width="50" height="50" as="geometry" />
        </mxCell>
        <mxCell id="ZvNCzg9YMRPsK_EZllgJ-53" value="" style="points=[[0.25,0.25,0],[0.5,0,0],[0.75,0.25,0],[1,0.5,0],[0.75,0.75,0],[0.5,1,0],[0.25,0.75,0],[0,0.5,0]];shape=mxgraph.bpmn.gateway2;html=1;verticalLabelPosition=bottom;labelBackgroundColor=#ffffff;verticalAlign=top;align=center;perimeter=rhombusPerimeter;outlineConnect=0;outline=end;symbol=general;" vertex="1" parent="ZvNCzg9YMRPsK_EZllgJ-3">
          <mxGeometry x="290" y="120" width="50" height="50" as="geometry" />
        </mxCell>
        <mxCell id="ZvNCzg9YMRPsK_EZllgJ-22" value="" style="edgeStyle=elbowEdgeStyle;fontSize=12;html=1;endFill=0;startFill=0;endSize=6;startSize=6;dashed=1;dashPattern=1 4;endArrow=openThin;startArrow=none;rounded=0;entryX=0.5;entryY=0;entryDx=0;entryDy=0;entryPerimeter=0;" edge="1" parent="1" target="ZvNCzg9YMRPsK_EZllgJ-19">
          <mxGeometry width="160" relative="1" as="geometry">
            <mxPoint x="700" y="280" as="sourcePoint" />
            <mxPoint x="270" y="320" as="targetPoint" />
            <Array as="points">
              <mxPoint x="235" y="440" />
              <mxPoint x="700" y="420" />
              <mxPoint x="270" y="320" />
              <mxPoint x="370" y="320" />
              <mxPoint x="370" y="370" />
              <mxPoint x="250" y="410" />
              <mxPoint x="370" y="300" />
            </Array>
          </mxGeometry>
        </mxCell>
        <mxCell id="ZvNCzg9YMRPsK_EZllgJ-23" value="" style="edgeStyle=elbowEdgeStyle;fontSize=12;html=1;endFill=0;startFill=0;endSize=6;startSize=6;dashed=1;dashPattern=1 4;endArrow=none;startArrow=none;rounded=0;exitX=0.5;exitY=1;exitDx=0;exitDy=0;exitPerimeter=0;" edge="1" parent="1" source="ZvNCzg9YMRPsK_EZllgJ-14">
          <mxGeometry width="160" relative="1" as="geometry">
            <mxPoint x="150" y="390" as="sourcePoint" />
            <mxPoint x="700" y="280" as="targetPoint" />
          </mxGeometry>
        </mxCell>
        <mxCell id="ZvNCzg9YMRPsK_EZllgJ-42" value="" style="edgeStyle=elbowEdgeStyle;fontSize=12;html=1;endFill=0;startFill=0;endSize=6;startSize=6;dashed=1;dashPattern=1 4;endArrow=none;startArrow=none;rounded=0;entryX=0.5;entryY=0;entryDx=0;entryDy=0;entryPerimeter=0;" edge="1" parent="1" target="ZvNCzg9YMRPsK_EZllgJ-30">
          <mxGeometry width="160" relative="1" as="geometry">
            <mxPoint x="495" y="290" as="sourcePoint" />
            <mxPoint x="580" y="370" as="targetPoint" />
            <Array as="points">
              <mxPoint x="495" y="460" />
            </Array>
          </mxGeometry>
        </mxCell>
      </root>
    </mxGraphModel>
  </diagram>
</mxfile>
